<svg xmlns="http://www.w3.org/2000/svg" version="1.1" xmlns:xlink="http://www.w3.org/1999/xlink" xmlns:svgjs="http://svgjs.dev/svgjs" width="1000" height="1000"><g clip-path="url(#SvgjsClipPath1427)"><rect width="1000" height="1000" fill="#ffffff"></rect><g transform="matrix(16.27906976744186,0,0,16.27906976744186,150,329.06976744186045)"><svg xmlns="http://www.w3.org/2000/svg" version="1.1" xmlns:xlink="http://www.w3.org/1999/xlink" xmlns:svgjs="http://svgjs.dev/svgjs" width="43" height="21"><svg width="43" height="21" viewBox="0 0 43 21" fill="none" xmlns="http://www.w3.org/2000/svg">
<path d="M4.865 17.067V17.068H5.365H17.515C17.9086 17.068 18.294 16.9691 18.5786 16.6846C18.583 16.6801 18.5875 16.6755 18.592 16.671V19.7852C18.5619 19.7503 18.5313 19.7174 18.5007 19.6866L18.4996 19.6854C18.215 19.4009 17.8296 19.302 17.436 19.302H1.12437C1.36237 19.0252 1.447 18.6681 1.447 18.304V1.578C1.447 1.18439 1.34813 0.799019 1.06355 0.514447C1.05873 0.509627 1.05386 0.504811 1.04895 0.5H5.10409C5.09988 0.504106 5.09571 0.508215 5.09157 0.512326C4.80537 0.79672 4.707 1.18447 4.707 1.577V16.567V17.067H4.865Z" fill="black" stroke="black"></path>
<path d="M30.7868 14.3268L31.2395 15.3352L31.698 14.3294L36.9803 2.74055C37.2448 2.20971 37.345 1.74136 37.345 1.34204C37.345 1.05733 37.2468 0.792998 37.0625 0.579041H41.466C41.4526 0.59507 41.4396 0.611677 41.4269 0.628887C41.3016 0.767435 41.1663 0.985609 41.0328 1.22602C40.8768 1.5069 40.6935 1.87402 40.4925 2.31556C40.4923 2.31602 40.4921 2.31648 40.4919 2.31694L33.6324 17.1391C33.4736 17.4565 33.3477 17.7284 33.2606 17.9575C33.1768 18.178 33.11 18.4058 33.11 18.618C33.11 18.9276 33.2032 19.221 33.4045 19.459H28.8519C29.1036 19.2085 29.219 18.8839 29.219 18.539C29.219 18.4296 29.194 18.3224 29.1701 18.2388C29.1441 18.1477 29.1079 18.0468 29.0648 17.9392C28.9792 17.7252 28.8552 17.4573 28.6967 17.1394L21.8373 2.31738C21.837 2.31682 21.8368 2.31626 21.8365 2.3157C21.636 1.87402 21.4527 1.50683 21.2965 1.22586C21.1503 0.962875 21.0021 0.727046 20.8675 0.592487C20.863 0.587985 20.8585 0.583503 20.8539 0.579041H25.5239C25.3303 0.782379 25.221 1.04021 25.221 1.34104C25.221 1.67188 25.3264 2.13641 25.5776 2.7213L25.5775 2.72133L25.5808 2.72879L30.7868 14.3268Z" fill="black" stroke="black"></path>
</svg></svg></g></g><defs><clipPath id="SvgjsClipPath1427"><rect width="1000" height="1000" x="0" y="0" rx="500" ry="500"></rect></clipPath></defs></svg>